<svg data-v-d3f97b9e="" xmlns="http://www.w3.org/2000/svg" viewBox="0 0 49.177437971107345 60"><!----><!----><!----><!----><g data-v-d3f97b9e="" id="5080bff5-15f9-4d5c-bcf5-809adcdd3a08" transform="matrix(0.6058647851725096,0,0,0.6058647851725096,-4.354349229277275,-0.293843282619477)" stroke="none" fill="black"><path d="M49.877 92.378c12.023 0 21.769-9.748 21.769-21.771 0-3.732-.938-7.246-2.594-10.314a6.944 6.944 0 0 0 4.4-6.461c0-3.074-2.009-5.688-4.778-6.598-1.8-.565-3.007-3.102-2.419-6.652.205-1.007.289-2.046.289-3.106 0-5.175-2.288-10.017-6.007-13.074l-5.349-4.843H44.562L39.215 24.4c-3.718 3.058-6.006 7.899-6.006 13.074 0 1.061.083 2.1.289 3.106.589 3.551-.618 6.087-2.419 6.652-2.77.91-4.779 3.523-4.779 6.598a6.945 6.945 0 0 0 4.402 6.461 21.663 21.663 0 0 0-2.594 10.314c-.001 12.025 9.746 21.773 21.769 21.773zm-8.533-71.681l1.101-.997-.618.062c-6.685.698-12.285 2.133-15.35 3.378a3.073 3.073 0 0 0-1.982 2.873l-.003 65.015c0 1.309.819 2.426 1.973 2.869 4.228 1.719 13.359 3.811 23.409 3.811 10.041 0 19.169-2.088 23.399-3.807a3.07 3.07 0 0 0 1.982-2.873l.004-65.015a3.07 3.07 0 0 0-1.973-2.869c-3.152-1.282-9.027-2.77-15.979-3.444l1.102.998c6.354.714 11.665 2.087 14.551 3.262a2.202 2.202 0 0 1 1.421 2.054l-.003 65.015c0 .936-.593 1.74-1.422 2.055-4.108 1.67-13.129 3.746-23.083 3.746-9.954 0-18.975-2.076-23.083-3.746a2.203 2.203 0 0 1-1.421-2.055l.003-65.015c0-.937.593-1.739 1.421-2.054 2.88-1.173 8.173-2.548 14.551-3.263zM32.049 4.233a3.073 3.073 0 0 0-3.072 3.072v7.119a3.072 3.072 0 0 0 3.072 3.071h35.607a3.073 3.073 0 0 0 3.072-3.071V7.306a3.073 3.073 0 0 0-3.072-3.072H32.049v-.001zm51.248 33.99a1.755 1.755 0 0 1 1.747-1.584h1.557c.969 0 1.755.785 1.755 1.755v24.188c0 .969-.786 1.754-1.755 1.754h-1.557a1.756 1.756 0 0 1-1.747-1.584l-3.604 1.258h-2.779v18.26h2.078a.879.879 0 0 1 .839-.615h1.131a.88.88 0 0 1 .879.877v8.281a.88.88 0 0 1-.879.879h-1.131a.881.881 0 0 1-.839-.615h-2.078v5.809a2.632 2.632 0 0 1-2.632 2.631H25.688a2.632 2.632 0 0 1-2.633-2.631V66.597c-1.026-.955-1.911-2.451-2.568-4.316-.462 4.266-1.328 9.307-3.368 15.404-1.548 4.629-2.693 9.145-2.268 12.977.148 1.34-.867 1.543-1.016.203a36.22 36.22 0 0 1-.198-2.719 2.01 2.01 0 0 1-1.157.363H9.208a2.02 2.02 0 0 1-2.021-2.021V84.82a2.02 2.02 0 0 1 2.021-2.021h3.272c.516 0 .986.193 1.343.512a30.528 30.528 0 0 1 1.379-6.266c2.51-7.502 3.191-13.348 3.566-18.158.188-2.41.272-5.039.644-7.57.461-4.098 1.83-7.47 3.642-9.156V3.117A2.632 2.632 0 0 1 25.687.485h48.594a2.632 2.632 0 0 1 2.632 2.632v23.421h2.078a.88.88 0 0 1 .839-.614h1.131a.88.88 0 0 1 .879.877v8.282a.879.879 0 0 1-.879.877H79.83a.879.879 0 0 1-.839-.615h-2.078v1.618h2.779l3.605 1.26zM37.145 62.155a15.206 15.206 0 0 0-2.548 8.451c0 8.439 6.841 15.281 15.28 15.281 8.438 0 15.279-6.842 15.279-15.281 0-3.1-.924-5.982-2.511-8.393.424.189.864.352 1.318.477a16.082 16.082 0 0 1 2.07 7.916c0 8.926-7.233 16.158-16.157 16.158s-16.159-7.232-16.159-16.158c0-2.887.758-5.6 2.086-7.945a9.081 9.081 0 0 0 1.342-.506zm23.814-8.324a5.469 5.469 0 1 1 10.937 0 5.469 5.469 0 0 1-10.937 0zm3.752 0a1.716 1.716 0 1 0 3.432-.002 1.716 1.716 0 0 0-3.432.002zm-36.939 0a5.468 5.468 0 1 1 10.936-.002 5.468 5.468 0 0 1-10.936.002zm3.751 0a1.716 1.716 0 1 0 3.432-.002 1.716 1.716 0 0 0-3.432.002zm5.596 16.775c0-7.045 5.712-12.758 12.758-12.758 7.045 0 12.757 5.713 12.757 12.758 0 7.047-5.712 12.758-12.757 12.758-7.046 0-12.758-5.711-12.758-12.758zm6.392-3.41c0 1.713 1.39 3.104 3.103 3.104a3.105 3.105 0 0 0 0-6.208 3.105 3.105 0 0 0-3.103 3.104zm-6.392-29.721c0-7.048 5.712-12.759 12.758-12.759 7.045 0 12.757 5.711 12.757 12.759 0 7.046-5.712 12.757-12.757 12.757-7.046-.001-12.758-5.711-12.758-12.757zm6.392-4.169a3.103 3.103 0 1 0 6.206-.002 3.103 3.103 0 0 0-6.206.002zm24.045 29.648a19.193 19.193 0 0 1 1.579 7.652c0 10.639-8.622 19.26-19.258 19.26-10.637 0-19.26-8.621-19.26-19.26 0-2.715.562-5.299 1.576-7.641.307.035.619.053.934.057a18.328 18.328 0 0 0-1.632 7.584c0 10.152 8.229 18.381 18.382 18.381 10.152 0 18.381-8.229 18.381-18.381a18.31 18.31 0 0 0-1.634-7.586c.314-.005.625-.027.932-.066zM32.049 5.111h35.607c1.212 0 2.194.983 2.194 2.194v7.119a2.193 2.193 0 0 1-2.194 2.193H32.049a2.193 2.193 0 0 1-2.194-2.193V7.306c0-1.211.982-2.195 2.194-2.195z"></path></g><!----></svg>