<svg data-v-d3f97b9e="" xmlns="http://www.w3.org/2000/svg" viewBox="0 0 562.846160406192 215"><!----><!----><!----><g data-v-d3f97b9e="" id="62dbbbc0-5256-49a8-9db2-4ef0e2262287" fill="white" transform="matrix(5.769230980844901,0,0,5.769230980844901,1.0384545276854737,121.9704008102417)"><path d="M7.39 1.86L5.18 1.86L5.18 2.17L6.22 2.52L3.60 9.24L0.73 1.86L-0.18 1.86L3.19 10.26L4.02 10.26ZM14.06 10.26L14.06 9.56C13.86 9.63 13.64 9.70 13.40 9.70C13.08 9.70 12.94 9.52 12.94 9.23L12.94 5.96C12.94 4.41 12.00 3.58 10.32 3.58C9.81 3.58 9.13 3.71 8.54 3.89L8.54 5.46L8.85 5.46L9.20 4.42C9.59 4.34 10.00 4.28 10.32 4.28C11.58 4.28 12.17 4.82 12.17 5.96L12.17 6.55L10.15 6.55C8.60 6.55 7.87 7.32 7.87 8.34C7.87 9.53 8.81 10.40 10.60 10.40C11.24 10.40 11.87 10.26 12.40 10.04C12.59 10.28 12.91 10.40 13.19 10.40C13.51 10.40 13.82 10.33 14.06 10.26ZM12.17 9.41C11.70 9.59 11.17 9.72 10.60 9.72C9.30 9.72 8.65 9.18 8.65 8.34C8.65 7.67 9.09 7.22 10.15 7.22L12.17 7.22ZM16.87 1.40C16.87 1.04 16.58 0.73 16.21 0.73C15.85 0.73 15.54 1.04 15.54 1.40C15.54 1.76 15.85 2.06 16.21 2.06C16.58 2.06 16.87 1.76 16.87 1.40ZM17.64 10.26L17.64 9.95L16.59 9.60L16.59 3.72L15.82 3.72L15.82 10.26ZM24.63 7C24.63 4.79 23.42 3.58 21.64 3.58C21.15 3.58 20.54 3.67 20.08 3.82L20.08 0L19.31 0L19.31 10.02C19.98 10.22 20.93 10.40 21.64 10.40C23.42 10.40 24.63 9.20 24.63 7ZM23.84 7C23.84 8.76 22.96 9.70 21.64 9.70C21.13 9.70 20.59 9.62 20.08 9.48L20.08 4.51C20.59 4.37 21.13 4.28 21.64 4.28C22.96 4.28 23.84 5.22 23.84 7ZM32.58 10.26L32.58 9.95L31.54 9.60L31.54 5.96C31.54 4.41 30.60 3.58 28.92 3.58C28.43 3.58 27.82 3.67 27.36 3.82L27.36 0L26.59 0L26.59 10.26L27.36 10.26L27.36 4.51C27.87 4.37 28.41 4.28 28.92 4.28C30.18 4.28 30.77 4.82 30.77 5.96L30.77 10.26ZM39.80 10.26L39.80 9.56C39.61 9.63 39.38 9.70 39.14 9.70C38.82 9.70 38.68 9.52 38.68 9.23L38.68 5.96C38.68 4.41 37.74 3.58 36.06 3.58C35.56 3.58 34.87 3.71 34.29 3.89L34.29 5.46L34.59 5.46L34.94 4.42C35.34 4.34 35.74 4.28 36.06 4.28C37.32 4.28 37.91 4.82 37.91 5.96L37.91 6.55L35.90 6.55C34.34 6.55 33.61 7.32 33.61 8.34C33.61 9.53 34.55 10.40 36.34 10.40C36.99 10.40 37.62 10.26 38.15 10.04C38.33 10.28 38.65 10.40 38.93 10.40C39.26 10.40 39.56 10.33 39.80 10.26ZM37.91 9.41C37.45 9.59 36.92 9.72 36.34 9.72C35.04 9.72 34.40 9.18 34.40 8.34C34.40 7.67 34.83 7.22 35.90 7.22L37.91 7.22ZM46.42 3.72L44.30 3.72L44.30 4.03L45.35 4.38L43.44 9.27L41.29 3.72L40.45 3.72L43.08 10.26L43.81 10.26ZM57.40 7.99C57.40 6.55 56.38 5.61 54.43 5.61C53.05 5.61 52.37 5.00 52.37 4.00C52.37 3.22 53.10 2.44 54.52 2.44C55.34 2.44 55.97 2.53 56.60 2.72L57.01 3.60L57.30 3.60L57.30 2.24C56.42 1.89 55.64 1.72 54.52 1.72C52.57 1.72 51.56 2.81 51.56 4.03C51.56 5.43 52.51 6.41 54.43 6.41C55.85 6.41 56.57 7 56.57 8.02C56.57 8.89 55.86 9.69 54.35 9.69C53.16 9.69 52.35 9.48 51.46 9.17L51.46 9.88C52.35 10.19 53.16 10.40 54.35 10.40C56.41 10.40 57.40 9.23 57.40 7.99ZM65.25 10.26L65.25 9.95L64.22 9.60L64.22 5.96C64.22 4.41 63.28 3.58 61.60 3.58C61.11 3.58 60.49 3.67 60.03 3.82L60.03 0L59.26 0L59.26 10.26L60.03 10.26L60.03 4.51C60.55 4.37 61.08 4.28 61.60 4.28C62.86 4.28 63.45 4.82 63.45 5.96L63.45 10.26ZM72.48 10.26L72.48 9.56C72.28 9.63 72.06 9.70 71.82 9.70C71.50 9.70 71.36 9.52 71.36 9.23L71.36 5.96C71.36 4.41 70.42 3.58 68.74 3.58C68.24 3.58 67.55 3.71 66.96 3.89L66.96 5.46L67.27 5.46L67.62 4.42C68.01 4.34 68.42 4.28 68.74 4.28C70 4.28 70.59 4.82 70.59 5.96L70.59 6.55L68.57 6.55C67.02 6.55 66.29 7.32 66.29 8.34C66.29 9.53 67.23 10.40 69.02 10.40C69.66 10.40 70.29 10.26 70.83 10.04C71.01 10.28 71.33 10.40 71.61 10.40C71.93 10.40 72.24 10.33 72.48 10.26ZM70.59 9.41C70.13 9.59 69.59 9.72 69.02 9.72C67.72 9.72 67.07 9.18 67.07 8.34C67.07 7.67 67.51 7.22 68.57 7.22L70.59 7.22ZM78.36 5.46L78.36 3.89C77.77 3.71 77.08 3.58 76.58 3.58C75.87 3.58 74.90 3.78 74.19 3.98L73.99 4.03L74.24 4.80L74.24 10.26L75.01 10.26L75.01 4.51C75.53 4.37 76.06 4.28 76.58 4.28C76.90 4.28 77.31 4.34 77.70 4.42L78.05 5.46ZM90.16 10.26L90.16 9.95L89.11 9.60L89.11 5.96C89.11 4.49 88.23 3.58 86.65 3.58C85.58 3.58 84.85 3.98 84.57 4.68C84.29 3.99 83.50 3.58 82.32 3.58C81.61 3.58 80.64 3.78 79.93 3.98L79.73 4.03L79.98 4.80L79.98 10.26L80.75 10.26L80.75 4.51C81.27 4.37 81.80 4.28 82.32 4.28C83.58 4.28 84.17 4.82 84.17 5.96L84.17 10.26L84.94 10.26L84.94 5.96C84.94 4.87 85.48 4.28 86.65 4.28C87.79 4.28 88.35 4.87 88.35 5.96L88.35 10.26ZM97.38 10.26L97.38 9.56C97.19 9.63 96.96 9.70 96.73 9.70C96.40 9.70 96.26 9.52 96.26 9.23L96.26 5.96C96.26 4.41 95.33 3.58 93.65 3.58C93.14 3.58 92.46 3.71 91.87 3.89L91.87 5.46L92.18 5.46L92.53 4.42C92.92 4.34 93.32 4.28 93.65 4.28C94.91 4.28 95.49 4.82 95.49 5.96L95.49 6.55L93.48 6.55C91.92 6.55 91.20 7.32 91.20 8.34C91.20 9.53 92.13 10.40 93.93 10.40C94.57 10.40 95.20 10.26 95.73 10.04C95.91 10.28 96.24 10.40 96.52 10.40C96.84 10.40 97.15 10.33 97.38 10.26ZM95.49 9.41C95.03 9.59 94.50 9.72 93.93 9.72C92.62 9.72 91.98 9.18 91.98 8.34C91.98 7.67 92.41 7.22 93.48 7.22L95.49 7.22Z"></path></g><!----><g data-v-d3f97b9e="" id="fd5ea007-e1e5-40fc-9653-8a44d6fcdbf0" transform="matrix(1.1003555297851562,0,0,1.1003555297851562,229.62136271964482,0.46612447169545845)" stroke="none" fill="white"><path d="M49.877 92.378c12.023 0 21.769-9.748 21.769-21.771 0-3.732-.938-7.246-2.594-10.314a6.944 6.944 0 0 0 4.4-6.461c0-3.074-2.009-5.688-4.778-6.598-1.8-.565-3.007-3.102-2.419-6.652.205-1.007.289-2.046.289-3.106 0-5.175-2.288-10.017-6.007-13.074l-5.349-4.843H44.562L39.215 24.4c-3.718 3.058-6.006 7.899-6.006 13.074 0 1.061.083 2.1.289 3.106.589 3.551-.618 6.087-2.419 6.652-2.77.91-4.779 3.523-4.779 6.598a6.945 6.945 0 0 0 4.402 6.461 21.663 21.663 0 0 0-2.594 10.314c-.001 12.025 9.746 21.773 21.769 21.773zm-8.533-71.681l1.101-.997-.618.062c-6.685.698-12.285 2.133-15.35 3.378a3.073 3.073 0 0 0-1.982 2.873l-.003 65.015c0 1.309.819 2.426 1.973 2.869 4.228 1.719 13.359 3.811 23.409 3.811 10.041 0 19.169-2.088 23.399-3.807a3.07 3.07 0 0 0 1.982-2.873l.004-65.015a3.07 3.07 0 0 0-1.973-2.869c-3.152-1.282-9.027-2.77-15.979-3.444l1.102.998c6.354.714 11.665 2.087 14.551 3.262a2.202 2.202 0 0 1 1.421 2.054l-.003 65.015c0 .936-.593 1.74-1.422 2.055-4.108 1.67-13.129 3.746-23.083 3.746-9.954 0-18.975-2.076-23.083-3.746a2.203 2.203 0 0 1-1.421-2.055l.003-65.015c0-.937.593-1.739 1.421-2.054 2.88-1.173 8.173-2.548 14.551-3.263zM32.049 4.233a3.073 3.073 0 0 0-3.072 3.072v7.119a3.072 3.072 0 0 0 3.072 3.071h35.607a3.073 3.073 0 0 0 3.072-3.071V7.306a3.073 3.073 0 0 0-3.072-3.072H32.049v-.001zm51.248 33.99a1.755 1.755 0 0 1 1.747-1.584h1.557c.969 0 1.755.785 1.755 1.755v24.188c0 .969-.786 1.754-1.755 1.754h-1.557a1.756 1.756 0 0 1-1.747-1.584l-3.604 1.258h-2.779v18.26h2.078a.879.879 0 0 1 .839-.615h1.131a.88.88 0 0 1 .879.877v8.281a.88.88 0 0 1-.879.879h-1.131a.881.881 0 0 1-.839-.615h-2.078v5.809a2.632 2.632 0 0 1-2.632 2.631H25.688a2.632 2.632 0 0 1-2.633-2.631V66.597c-1.026-.955-1.911-2.451-2.568-4.316-.462 4.266-1.328 9.307-3.368 15.404-1.548 4.629-2.693 9.145-2.268 12.977.148 1.34-.867 1.543-1.016.203a36.22 36.22 0 0 1-.198-2.719 2.01 2.01 0 0 1-1.157.363H9.208a2.02 2.02 0 0 1-2.021-2.021V84.82a2.02 2.02 0 0 1 2.021-2.021h3.272c.516 0 .986.193 1.343.512a30.528 30.528 0 0 1 1.379-6.266c2.51-7.502 3.191-13.348 3.566-18.158.188-2.41.272-5.039.644-7.57.461-4.098 1.83-7.47 3.642-9.156V3.117A2.632 2.632 0 0 1 25.687.485h48.594a2.632 2.632 0 0 1 2.632 2.632v23.421h2.078a.88.88 0 0 1 .839-.614h1.131a.88.88 0 0 1 .879.877v8.282a.879.879 0 0 1-.879.877H79.83a.879.879 0 0 1-.839-.615h-2.078v1.618h2.779l3.605 1.26zM37.145 62.155a15.206 15.206 0 0 0-2.548 8.451c0 8.439 6.841 15.281 15.28 15.281 8.438 0 15.279-6.842 15.279-15.281 0-3.1-.924-5.982-2.511-8.393.424.189.864.352 1.318.477a16.082 16.082 0 0 1 2.07 7.916c0 8.926-7.233 16.158-16.157 16.158s-16.159-7.232-16.159-16.158c0-2.887.758-5.6 2.086-7.945a9.081 9.081 0 0 0 1.342-.506zm23.814-8.324a5.469 5.469 0 1 1 10.937 0 5.469 5.469 0 0 1-10.937 0zm3.752 0a1.716 1.716 0 1 0 3.432-.002 1.716 1.716 0 0 0-3.432.002zm-36.939 0a5.468 5.468 0 1 1 10.936-.002 5.468 5.468 0 0 1-10.936.002zm3.751 0a1.716 1.716 0 1 0 3.432-.002 1.716 1.716 0 0 0-3.432.002zm5.596 16.775c0-7.045 5.712-12.758 12.758-12.758 7.045 0 12.757 5.713 12.757 12.758 0 7.047-5.712 12.758-12.757 12.758-7.046 0-12.758-5.711-12.758-12.758zm6.392-3.41c0 1.713 1.39 3.104 3.103 3.104a3.105 3.105 0 0 0 0-6.208 3.105 3.105 0 0 0-3.103 3.104zm-6.392-29.721c0-7.048 5.712-12.759 12.758-12.759 7.045 0 12.757 5.711 12.757 12.759 0 7.046-5.712 12.757-12.757 12.757-7.046-.001-12.758-5.711-12.758-12.757zm6.392-4.169a3.103 3.103 0 1 0 6.206-.002 3.103 3.103 0 0 0-6.206.002zm24.045 29.648a19.193 19.193 0 0 1 1.579 7.652c0 10.639-8.622 19.26-19.258 19.26-10.637 0-19.26-8.621-19.26-19.26 0-2.715.562-5.299 1.576-7.641.307.035.619.053.934.057a18.328 18.328 0 0 0-1.632 7.584c0 10.152 8.229 18.381 18.382 18.381 10.152 0 18.381-8.229 18.381-18.381a18.31 18.31 0 0 0-1.634-7.586c.314-.005.625-.027.932-.066zM32.049 5.111h35.607c1.212 0 2.194.983 2.194 2.194v7.119a2.193 2.193 0 0 1-2.194 2.193H32.049a2.193 2.193 0 0 1-2.194-2.193V7.306c0-1.211.982-2.195 2.194-2.195z"></path></g><!----><g data-v-d3f97b9e="" id="21e46b87-6218-4596-a625-b3694744b0dd" fill="white" transform="matrix(1.9269393627211326,0,0,1.9269393627211326,69.76474625948939,212.54643527105048)"><path d="M1.68 7.64L5.60 7.64L5.60 7.24L1.68 7.24L1.68 3.21L5.74 3.21L5.74 2.80L1.26 2.80L1.26 12.60L1.68 12.60ZM14.70 7.70C14.70 6.38 15.11 5.29 15.92 4.41C16.73 3.53 17.76 3.09 19.00 3.09C20.24 3.09 21.27 3.53 22.08 4.41C22.89 5.29 23.30 6.38 23.30 7.70C23.30 9.02 22.89 10.11 22.08 10.99C21.27 11.87 20.24 12.31 19.00 12.31C17.76 12.31 16.73 11.87 15.92 10.99C15.11 10.11 14.70 9.02 14.70 7.70ZM14.28 7.70C14.28 9.16 14.73 10.36 15.62 11.30C16.51 12.24 17.64 12.71 19.00 12.71C20.36 12.71 21.49 12.24 22.38 11.30C23.27 10.36 23.72 9.16 23.72 7.70C23.72 6.24 23.27 5.04 22.38 4.10C21.49 3.16 20.36 2.69 19.00 2.69C17.64 2.69 16.51 3.16 15.62 4.10C14.73 5.04 14.28 6.24 14.28 7.70ZM32.58 7.70C32.58 6.33 32.96 5.22 33.72 4.38C34.48 3.53 35.49 3.11 36.74 3.11C37.93 3.11 38.98 3.54 39.89 4.41L39.89 3.81C39.04 3.06 37.99 2.69 36.74 2.69C35.38 2.69 34.27 3.16 33.41 4.09C32.55 5.03 32.12 6.23 32.12 7.70C32.12 9.17 32.55 10.37 33.41 11.30C34.27 12.24 35.38 12.71 36.74 12.71C37.99 12.71 39.04 12.34 39.89 11.59L39.89 11.03C39.02 11.87 37.97 12.29 36.74 12.29C35.49 12.29 34.48 11.87 33.72 11.03C32.96 10.18 32.58 9.07 32.58 7.70ZM49.20 2.80L49.20 9.24C49.20 10.29 49.48 11.13 50.05 11.77C50.62 12.42 51.38 12.74 52.32 12.74C53.26 12.74 54.02 12.42 54.59 11.77C55.16 11.13 55.44 10.29 55.44 9.24L55.44 2.80L55.02 2.80L55.02 9.24C55.02 10.17 54.77 10.92 54.26 11.47C53.75 12.02 53.10 12.29 52.32 12.29C51.53 12.29 50.89 12.02 50.38 11.47C49.87 10.92 49.62 10.17 49.62 9.24L49.62 2.80ZM64.57 9.74L64.19 9.90C64.82 11.77 65.87 12.71 67.34 12.71C68.25 12.71 68.95 12.45 69.41 11.93C69.88 11.41 70.11 10.77 70.11 10.01C70.11 9.66 70.05 9.35 69.94 9.06C69.82 8.78 69.69 8.55 69.55 8.37C69.40 8.19 69.20 8.02 68.94 7.86C68.67 7.70 68.46 7.58 68.30 7.50C68.14 7.43 67.91 7.34 67.63 7.22C67.60 7.21 67.48 7.16 67.28 7.08C67.09 7.01 66.97 6.96 66.92 6.94C66.87 6.91 66.77 6.87 66.60 6.80C66.43 6.73 66.32 6.67 66.27 6.64C66.22 6.60 66.13 6.54 66.00 6.45C65.87 6.37 65.78 6.30 65.73 6.24C65.68 6.18 65.62 6.10 65.53 6.00C65.45 5.90 65.39 5.80 65.36 5.70C65.33 5.61 65.30 5.50 65.27 5.38C65.24 5.25 65.23 5.12 65.23 4.98C65.23 4.41 65.42 3.95 65.82 3.62C66.22 3.29 66.71 3.12 67.30 3.12C68.43 3.12 69.21 3.77 69.65 5.07L70.06 4.90C69.85 4.23 69.51 3.69 69.05 3.29C68.58 2.89 68.00 2.69 67.31 2.69C66.62 2.69 66.02 2.90 65.51 3.33C65.00 3.76 64.75 4.33 64.75 5.04C64.75 5.39 64.82 5.71 64.97 5.99C65.11 6.27 65.33 6.51 65.61 6.71C65.90 6.91 66.15 7.07 66.38 7.17C66.61 7.28 66.91 7.41 67.27 7.55C67.55 7.65 67.74 7.72 67.84 7.77C67.95 7.82 68.12 7.90 68.36 8.02C68.60 8.13 68.78 8.24 68.89 8.34C68.99 8.45 69.12 8.58 69.27 8.75C69.41 8.92 69.51 9.11 69.57 9.32C69.62 9.54 69.65 9.78 69.65 10.05C69.65 10.72 69.46 11.27 69.08 11.68C68.70 12.09 68.14 12.29 67.38 12.29C66.15 12.29 65.21 11.44 64.57 9.74ZM79.07 2.80L79.07 12.60L79.49 12.60L79.49 2.80ZM95.87 2.80L95.87 11.79L88.38 2.45L88.38 12.60L88.80 12.60L88.80 3.61L96.29 12.95L96.29 2.80ZM113.93 7.63L109.87 7.63L109.87 8.11L113.46 8.11C113.37 9.32 112.98 10.32 112.27 11.09C111.56 11.87 110.62 12.26 109.45 12.26C108.16 12.26 107.12 11.82 106.33 10.94C105.54 10.06 105.14 8.98 105.14 7.70C105.14 6.40 105.54 5.32 106.35 4.45C107.16 3.57 108.19 3.14 109.45 3.14C110.20 3.14 110.89 3.31 111.53 3.65C112.17 4.00 112.68 4.47 113.06 5.05L113.46 4.75C113.02 4.11 112.46 3.61 111.78 3.24C111.09 2.87 110.32 2.69 109.45 2.69C108.10 2.69 106.97 3.17 106.06 4.13C105.15 5.09 104.69 6.28 104.69 7.70C104.69 9.12 105.15 10.31 106.06 11.27C106.97 12.23 108.10 12.71 109.45 12.71C110.82 12.71 111.91 12.22 112.72 11.23C113.53 10.25 113.93 9.05 113.93 7.63ZM134.58 2.80ZM134.16 2.80L134.16 12.60L134.58 12.60L134.58 8.48L136.14 8.48L139.26 12.60L139.80 12.60L136.61 8.47C137.51 8.41 138.22 8.15 138.76 7.67C139.30 7.20 139.57 6.52 139.57 5.64C139.57 4.71 139.26 4.00 138.66 3.52C138.05 3.04 137.25 2.80 136.26 2.80ZM134.58 3.21L136.26 3.21C137.13 3.21 137.83 3.41 138.35 3.83C138.87 4.24 139.13 4.85 139.13 5.64C139.13 6.44 138.87 7.04 138.35 7.45C137.83 7.87 137.13 8.08 136.26 8.08L134.58 8.08ZM148.62 7.48L152.96 7.48L152.96 7.08L148.62 7.08L148.62 3.21L153.24 3.21L153.24 2.80L148.20 2.80L148.20 12.60L153.24 12.60L153.24 12.19L148.62 12.19ZM165.84 2.45L161.57 12.60L162.06 12.60L163.34 9.52L168.35 9.52L169.62 12.60L170.11 12.60ZM165.84 3.50L168.15 9.07L163.53 9.07ZM178.58 2.80L178.58 12.60L183.06 12.60L183.06 12.19L179.00 12.19L179.00 2.80ZM191.53 2.80L191.53 12.60L191.95 12.60L191.95 2.80ZM200.42 3.21L202.94 3.21L202.94 12.60L203.36 12.60L203.36 3.21L205.88 3.21L205.88 2.80L200.42 2.80ZM219.80 2.80L216.79 8.16L213.91 2.80L213.37 2.80L216.57 8.62L216.57 12.60L217.01 12.60L217.01 8.61L220.33 2.80Z"></path></g></svg>